/* XPM */
static char *eclipse[] = {
/* columns rows colors chars-per-pixel */
"16 16 2 1",
"  c #FE1D16",
". c None",
/* pixels */
"................",
".              .",
".              .",
".              .",
".              .",
".              .",
".              .",
".              .",
".              .",
".              .",
".              .",
".              .",
".              .",
".              .",
".              .",
"................"
};
